<?xml version="1.0" encoding="utf-8"?>
<!-- Generator: Adobe Illustrator 21.0.2, SVG Export Plug-In . SVG Version: 6.00 Build 0)  -->
<svg version="1.1" id="Layer_1" xmlns="http://www.w3.org/2000/svg" xmlns:xlink="http://www.w3.org/1999/xlink" x="0px" y="0px"
	 viewBox="0 0 81 80" style="enable-background:new 0 0 81 80;" xml:space="preserve">
<style type="text/css">
	.st0{fill:#FFFFFF;}
	.st1{fill:none;stroke:#E4BD03;stroke-width:2;stroke-linecap:round;stroke-miterlimit:10;}
	.st2{fill:#E4BD03;}
	.st3{fill:none;stroke:#E4BD03;stroke-width:3;stroke-linecap:round;stroke-miterlimit:10;}
</style>
<title>a034239c-9e49-45c5-b9aa-40c4a7c7893a</title>
<path class="st0" d="M40,0L40,0c22.1,0,40,17.9,40,40l0,0c0,22.1-17.9,40-40,40l0,0C17.9,80,0,62.1,0,40l0,0C0,17.9,17.9,0,40,0z"/>
<path class="st1" d="M58.3,11.7L58.3,11.7c15.6,15.6,15.6,40.9,0,56.6l0,0"/>
<g>
	<path class="st2" d="M34.1,52.4c-11.4,0-20.4-11.6-20.8-12.1l-0.5-0.6l0.5-0.6c0.4-0.5,9.4-11.4,20.8-11.4S54.5,38.6,54.9,39
		l0.5,0.6l-0.5,0.6C54.5,40.8,45.5,52.4,34.1,52.4z M15.4,39.7c2,2.4,9.7,10.7,18.7,10.7s16.7-8.3,18.7-10.7
		c-2-2.3-9.7-10.1-18.7-10.1C25.1,29.6,17.5,37.4,15.4,39.7z"/>
	<path class="st2" d="M34.1,47.6c-4.4,0-7.9-3.5-7.9-7.9s3.5-7.9,7.9-7.9s7.9,3.5,7.9,7.9l0,0C42,44,38.5,47.5,34.1,47.6z
		 M34.1,33.8c-3.3,0-5.9,2.6-5.9,5.9s2.6,5.9,5.9,5.9c3.3,0,5.9-2.6,5.9-5.9l0,0C40,36.4,37.4,33.8,34.1,33.8z"/>
	<path class="st2" d="M34.1,44.1c-2.5,0-4.4-2-4.4-4.4c0-0.6,0.4-1,1-1s1,0.4,1,1c0,1.4,1.1,2.4,2.4,2.4c1.4,0,2.4-1.1,2.4-2.4
		c0-1.4-1.1-2.4-2.4-2.4l0,0c-0.6,0-1-0.4-1-1s0.4-1,1-1c2.5,0,4.5,2,4.5,4.5S36.6,44.1,34.1,44.1L34.1,44.1z"/>
</g>
<line class="st3" x1="70" y1="40" x2="283.2" y2="40"/>
</svg>
