<?xml version="1.0" encoding="utf-8"?>
<!-- Generator: Adobe Illustrator 21.0.2, SVG Export Plug-In . SVG Version: 6.00 Build 0)  -->
<svg version="1.1" id="Layer_1" xmlns="http://www.w3.org/2000/svg" xmlns:xlink="http://www.w3.org/1999/xlink" x="0px" y="0px"
	 viewBox="0 0 81 80" style="enable-background:new 0 0 81 80;" xml:space="preserve">
<style type="text/css">
	.st0{fill:#FFFFFF;}
	.st1{fill:none;stroke:#E4BD03;stroke-width:2;stroke-linecap:round;stroke-miterlimit:10;}
	.st2{fill:none;stroke:#E4BD03;stroke-width:3;stroke-linecap:round;stroke-miterlimit:10;}
	.st3{fill:#E4BD03;}
</style>
<title>a034239c-9e49-45c5-b9aa-40c4a7c7893a</title>
<path class="st0" d="M40,0L40,0c22.1,0,40,17.9,40,40l0,0c0,22.1-17.9,40-40,40l0,0C17.9,80,0,62.1,0,40l0,0C0,17.9,17.9,0,40,0z"/>
<path class="st1" d="M58.3,11.7L58.3,11.7c15.6,15.6,15.6,40.9,0,56.6l0,0"/>
<line class="st2" x1="70" y1="40" x2="283.2" y2="40"/>
<g>
	<path class="st3" d="M35.3,61h-6.1c-3.8,0-6.9-2.8-8.6-5.4c-2.7-4.5-5.1-9.2-7.3-14c-1.3-2.5-0.6-4,0.2-4.8c0.6-0.7,1.6-1.1,2.5-1
		c1.1,0.2,2.1,0.9,2.7,1.9l2.5,3.7V26.5c0.1-2.1,1.8-3.9,3.9-3.9c2.1,0.1,3.9,1.8,3.9,3.9v10.9c0,0.6-0.4,1-1,1s-1-0.4-1-1V26.5
		c-0.1-1-0.9-1.8-1.9-1.9c-1,0.1-1.8,0.9-1.9,1.9v21.3L17,38.7c-0.4-0.6-0.8-1-1.2-1c-0.3,0-0.7,0.2-0.9,0.4
		c-0.2,0.2-0.7,0.7,0.2,2.5c2.2,4.7,4.6,9.4,7.2,13.8c1.3,2.1,3.9,4.5,6.9,4.5h6.1c4.5,0,9.1-4.6,9.1-9.2V37.9c0-0.6,0.4-1,1-1
		s1,0.4,1,1v11.9C46.5,55.5,40.9,61,35.3,61z"/>
	<path class="st3" d="M33.8,34.8c-0.6,0-1-0.4-1-1V22.9c-0.1-1-0.9-1.8-1.9-1.9c-1,0.1-1.8,0.9-1.9,1.9v10.9c0,0.6-0.4,1-1,1
		s-1-0.4-1-1V22.9c0.1-2.1,1.8-3.9,3.9-3.9c2.1,0.1,3.9,1.8,3.9,3.9v10.9C34.8,34.4,34.4,34.8,33.8,34.8z"/>
	<path class="st3" d="M33.8,38.5c-0.6,0-1-0.4-1-1V26.5c0-2.2,1.8-3.9,3.9-3.9s3.9,1.8,3.9,3.9v10.6c0,0.6-0.4,1-1,1s-1-0.4-1-1
		V26.5c-0.1-1-0.9-1.8-1.9-1.9c-1,0.1-1.8,0.9-1.9,1.9v10.9C34.8,38,34.4,38.5,33.8,38.5z"/>
	<path class="st3" d="M45.5,43.5c-0.6,0-1-0.4-1-1V31.6c0-1.1-0.9-1.9-1.9-1.9c-1.1,0-1.9,0.9-1.9,1.9v8.3c0,0.6-0.4,1-1,1
		s-1-0.4-1-1v-8.3c0-2.2,1.8-3.9,3.9-3.9s3.9,1.8,3.9,3.9v10.8C46.5,43,46,43.5,45.5,43.5z"/>
</g>
</svg>
