<svg xmlns="http://www.w3.org/2000/svg" viewBox="0 0 79.94 119.91"><defs><style>.cls-1{fill:#237792;}</style></defs><title>Logo_Iris_Osteopathie_Tilburg_Blauw</title><g id="Layer_2" data-name="Layer 2"><g id="Layer_1-2" data-name="Layer 1"><g id="Layer_2-2" data-name="Layer 2"><g id="Layer_1-2-2" data-name="Layer 1-2"><path class="cls-1" d="M6.39,117.52v-2.89A2.26,2.26,0,0,1,7,112.82a2.6,2.6,0,0,1,1.77-.57,2.63,2.63,0,0,1,1.77.57,2.25,2.25,0,0,1,.66,1.8v2.89a2.25,2.25,0,0,1-.66,1.8,2.63,2.63,0,0,1-1.77.57A2.6,2.6,0,0,1,7,119.32,2.26,2.26,0,0,1,6.39,117.52Zm1.35,0q0,1.19,1.08,1.19t1.08-1.19v-2.89q0-1.19-1.09-1.19t-1.08,1.19Z"/><path class="cls-1" d="M13.06,118.64a.81.81,0,0,1,.18-.48.51.51,0,0,1,.41-.24.53.53,0,0,1,.31.13,3.48,3.48,0,0,1,.33.29,1.52,1.52,0,0,0,.46.28,1.66,1.66,0,0,0,.66.13,1.43,1.43,0,0,0,.83-.23.76.76,0,0,0,.33-.67.91.91,0,0,0-.18-.55,1.45,1.45,0,0,0-.48-.4q-.3-.16-.65-.31t-.71-.34a4.12,4.12,0,0,1-.65-.42,1.68,1.68,0,0,1-.48-.62,2.27,2.27,0,0,1,0-1.87,1.69,1.69,0,0,1,.6-.66,2.8,2.8,0,0,1,.8-.35,3.59,3.59,0,0,1,.9-.11,4.68,4.68,0,0,1,.57,0,5.28,5.28,0,0,1,.64.12,1.34,1.34,0,0,1,.55.27.54.54,0,0,1,.21.43.94.94,0,0,1-.14.48.44.44,0,0,1-.39.25,2,2,0,0,1-.51-.2,2.12,2.12,0,0,0-.92-.2,1.5,1.5,0,0,0-.86.21.67.67,0,0,0-.31.59.68.68,0,0,0,.25.52,2,2,0,0,0,.62.36q.37.14.8.35a6.8,6.8,0,0,1,.8.46,1.93,1.93,0,0,1,.62.72,2.33,2.33,0,0,1,.25,1.1,2,2,0,0,1-.68,1.64,2.66,2.66,0,0,1-1.79.58,3.34,3.34,0,0,1-1.69-.4Q13.06,119.11,13.06,118.64Z"/><path class="cls-1" d="M19.38,112.84a.76.76,0,0,1,.11-.41.35.35,0,0,1,.32-.18h4.38a.35.35,0,0,1,.32.18.82.82,0,0,1,0,.83.35.35,0,0,1-.31.18H22.67v6a.35.35,0,0,1-.2.31,1,1,0,0,1-1,0,.35.35,0,0,1-.2-.31v-6H19.8a.35.35,0,0,1-.31-.17A.75.75,0,0,1,19.38,112.84Z"/><path class="cls-1" d="M26.38,119.4v-6.72a.35.35,0,0,1,.18-.31.74.74,0,0,1,.41-.11h3.69a.35.35,0,0,1,.32.18.75.75,0,0,1,.11.4.76.76,0,0,1-.11.42.35.35,0,0,1-.31.18H27.73v2.07H29.3a.36.36,0,0,1,.31.16.64.64,0,0,1,.11.38.62.62,0,0,1-.11.36.36.36,0,0,1-.32.16H27.73v2.08h2.93a.35.35,0,0,1,.31.18.77.77,0,0,1,.11.42.75.75,0,0,1-.11.4.35.35,0,0,1-.32.18H27a.74.74,0,0,1-.41-.11A.35.35,0,0,1,26.38,119.4Z"/><path class="cls-1" d="M32.74,117.52v-2.89a2.26,2.26,0,0,1,.66-1.8,3,3,0,0,1,3.54,0,2.25,2.25,0,0,1,.66,1.8v2.89a2.25,2.25,0,0,1-.66,1.8,3,3,0,0,1-3.54,0A2.26,2.26,0,0,1,32.74,117.52Zm1.35,0q0,1.19,1.08,1.19t1.09-1.19v-2.89q0-1.19-1.09-1.19t-1.08,1.19Z"/><path class="cls-1" d="M39.78,119.4v-6.73a.38.38,0,0,1,.14-.29.53.53,0,0,1,.37-.12h2.08a2.5,2.5,0,0,1,1.71.56,2.23,2.23,0,0,1,.64,1.77v.06a2.22,2.22,0,0,1-.67,1.78,2.63,2.63,0,0,1-1.77.57H41.13v2.4a.35.35,0,0,1-.2.31,1,1,0,0,1-1,0A.35.35,0,0,1,39.78,119.4Zm1.35-3.48h1.16a1.05,1.05,0,0,0,.8-.3,1.25,1.25,0,0,0,.28-.89v-.12a1.25,1.25,0,0,0-.28-.89,1.05,1.05,0,0,0-.8-.3H41.13Z"/><path class="cls-1" d="M45.5,119.23a.73.73,0,0,1,0-.11l2-6.51a.51.51,0,0,1,.31-.3,1.36,1.36,0,0,1,.55-.11,1.28,1.28,0,0,1,.56.12.54.54,0,0,1,.31.34l2,6.52a.62.62,0,0,1,0,.1.47.47,0,0,1-.28.39,1.11,1.11,0,0,1-.57.17q-.38,0-.46-.27l-.39-1.38H47.35L47,119.56q-.08.27-.51.27a1.31,1.31,0,0,1-.65-.17A.5.5,0,0,1,45.5,119.23Zm2.15-2.11h1.79l-.9-3.18Z"/><path class="cls-1" d="M52.07,112.84a.76.76,0,0,1,.11-.41.35.35,0,0,1,.32-.18h4.38a.35.35,0,0,1,.32.18.82.82,0,0,1,0,.83.35.35,0,0,1-.31.18H55.36v6a.35.35,0,0,1-.2.31,1,1,0,0,1-1,0,.35.35,0,0,1-.2-.31v-6H52.49a.35.35,0,0,1-.31-.17A.75.75,0,0,1,52.07,112.84Z"/><path class="cls-1" d="M59.07,119.4v-6.73a.33.33,0,0,1,.2-.31,1.15,1.15,0,0,1,1,0,.33.33,0,0,1,.2.31v2.7H62.8v-2.7a.33.33,0,0,1,.2-.31,1.15,1.15,0,0,1,1,0,.33.33,0,0,1,.2.31v6.73a.35.35,0,0,1-.2.31,1,1,0,0,1-1,0,.35.35,0,0,1-.2-.31v-3H60.42v3a.35.35,0,0,1-.2.31,1,1,0,0,1-1,0A.35.35,0,0,1,59.07,119.4Z"/><path class="cls-1" d="M66.37,119.4v-6.73a.33.33,0,0,1,.2-.31,1.15,1.15,0,0,1,1,0,.33.33,0,0,1,.2.31v6.73a.35.35,0,0,1-.2.31,1,1,0,0,1-.95,0A.35.35,0,0,1,66.37,119.4Z"/><path class="cls-1" d="M70,119.4v-6.72a.35.35,0,0,1,.18-.31.74.74,0,0,1,.41-.11h3.69a.35.35,0,0,1,.32.18.75.75,0,0,1,.11.4.76.76,0,0,1-.11.42.35.35,0,0,1-.31.18h-3v2.07h1.57a.36.36,0,0,1,.31.16.64.64,0,0,1,.11.38.62.62,0,0,1-.11.36.36.36,0,0,1-.32.16H71.34v2.08h2.93a.35.35,0,0,1,.31.18.77.77,0,0,1,.11.42.75.75,0,0,1-.11.4.35.35,0,0,1-.32.18H70.59a.74.74,0,0,1-.41-.11A.35.35,0,0,1,70,119.4Z"/><path class="cls-1" d="M64.69,47.08a.78.78,0,0,1-.58-1.3c4.26-4.75,8.81-10,13.52-15.49a3.24,3.24,0,0,0,.22-3.9v-.06A3.22,3.22,0,0,0,73,25.69c-4.44,3.79-8.71,7.5-12.69,11l-.62.55-.51-.64a24.21,24.21,0,0,0-2.06-2.26L56.76,34l.16-.47c3.2-9.2,6-17.79,7.74-23.37A2.67,2.67,0,0,0,63.32,7h-.06a2.67,2.67,0,0,0-3.58,1.15c-2.43,4.81-6.24,12.25-10.25,20.47l-.3.63L48.47,29a23.71,23.71,0,0,0-2.83-.8l-.58-.13v-.59C44.52,18.23,43.84,9.63,43.37,4a2.8,2.8,0,0,0-5.58,0c-.48,5.59-1.16,14.19-1.69,23.42v.59l-.58.13a23.9,23.9,0,0,0-2.83.8l-.66.23-.3-.63c-4-8.24-7.83-15.69-10.31-20.48a2.67,2.67,0,0,0-3.57-1.23l-.09,0H17.7a2.67,2.67,0,0,0-1.34,3.19v.14c1.6,5.07,3.8,12,7,21.37a.78.78,0,0,1-1.48.51h0c-3.26-9.38-5.46-16.33-7.07-21.41v-.14a4.23,4.23,0,0,1,2.14-5h.06a4.24,4.24,0,0,1,5.68,1.83c2.43,4.68,6.12,11.88,10,19.9.58-.19,1.18-.35,1.77-.5.53-9,1.2-17.39,1.66-22.87a4.37,4.37,0,0,1,8.7,0C45.34,9.43,46,17.8,46.53,26.82c.59.14,1.19.31,1.77.5,3.9-8,7.6-15.21,10-19.9A4.24,4.24,0,0,1,64,5.56h.06a4.23,4.23,0,0,1,2.12,5.05c-1.74,5.5-4.46,13.91-7.59,22.95q.68.68,1.31,1.42C63.71,31.6,67.78,28.07,72,24.47a4.79,4.79,0,0,1,7.06,1v.06a4.81,4.81,0,0,1-.32,5.8C74,36.82,69.47,42,65.2,46.8A.78.78,0,0,1,64.69,47.08Z"/><path class="cls-1" d="M60.87,51.3a.78.78,0,0,1-.78-.74,19.57,19.57,0,0,0-35-11l-.52.66L24,39.63c-4.23-3.8-8.87-7.87-13.82-12.11a5.66,5.66,0,0,0-4.63-1.29,5.53,5.53,0,0,0-3.62,2.26C6.68,34.08,13.68,42.21,20.8,50a.78.78,0,0,1-1.15,1.06h0c-7.32-8-14.53-16.38-19.28-22L0,28.64l.32-.54a7.09,7.09,0,0,1,5-3.41,7.22,7.22,0,0,1,5.91,1.65c4.71,4,9.16,7.94,13.23,11.59A21.14,21.14,0,0,1,61.65,50.48a.78.78,0,0,1-.74.82h0Z"/><path class="cls-1" d="M8.13,100.33H1.94a.78.78,0,0,1-.78-.78V64.19a.78.78,0,0,1,.78-.78H8.13a.78.78,0,0,1,.78.78V99.55a.78.78,0,0,1-.78.78ZM2.72,98.77H7.35V65H2.72Z"/><path class="cls-1" d="M40.28,100.33h-7a.78.78,0,0,1-.72-.49L27.13,86.57h-1v13a.78.78,0,0,1-.78.78H18.73a.78.78,0,0,1-.78-.78V64.19a.78.78,0,0,1,.78-.78h8.61c3.84,0,6.74.95,8.62,2.82s2.83,4.72,2.83,8.46c0,4.45-1.45,7.69-4.32,9.66L41,99.24a.78.78,0,0,1-.72,1.1Zm-6.51-1.56h5.31L32.77,84.36a.78.78,0,0,1,.32-1c2.78-1.64,4.14-4.48,4.14-8.69,0-3.31-.8-5.79-2.37-7.36S30.76,65,27.35,65H19.51v33.8h5v-13a.78.78,0,0,1,.78-.78h2.35a.78.78,0,0,1,.72.49ZM27,80.92H25.31a.78.78,0,0,1-.78-.78V69.92a.78.78,0,0,1,.78-.78H27a5.11,5.11,0,0,1,3.9,1.4,6.23,6.23,0,0,1,1.24,4.38A7.14,7.14,0,0,1,31,79.29,4.7,4.7,0,0,1,27,80.92Zm-.91-1.56H27a3.21,3.21,0,0,0,2.72-1,5.68,5.68,0,0,0,.85-3.44,4.91,4.91,0,0,0-.87-3.32,3.65,3.65,0,0,0-2.75-.9h-.86Z"/><path class="cls-1" d="M54,100.33H47.81a.78.78,0,0,1-.78-.78V64.19a.78.78,0,0,1,.78-.78H54a.78.78,0,0,1,.78.78V99.55a.78.78,0,0,1-.78.78Zm-5.4-1.56h4.63V65H48.6Z"/><path class="cls-1" d="M69.43,100.82a16.71,16.71,0,0,1-8.24-1.9.78.78,0,0,1-.4-.68V91.71A.78.78,0,0,1,62,91.06a12.92,12.92,0,0,0,6.85,2.46,2.91,2.91,0,0,0,2.27-.79,3.25,3.25,0,0,0,.75-2.3,4.35,4.35,0,0,0-1-2.75,16.27,16.27,0,0,0-3.57-3.09,17.52,17.52,0,0,1-3.61-3.16A11.67,11.67,0,0,1,61.75,78a13.14,13.14,0,0,1-.69-4.42A10.83,10.83,0,0,1,63.8,65.8a9.71,9.71,0,0,1,7.37-2.88,15.7,15.7,0,0,1,8.22,2.39.78.78,0,0,1,.32,1l-2.18,5.27a.78.78,0,0,1-1,.43l-.1-.05a20,20,0,0,0-2.34-1.16,6.22,6.22,0,0,0-2.42-.47,2.23,2.23,0,0,0-1.85.76,3.68,3.68,0,0,0-.68,2.37A4.15,4.15,0,0,0,70,76.05a14.58,14.58,0,0,0,3.39,2.87,15.77,15.77,0,0,1,5.08,5,11.84,11.84,0,0,1,1.47,5.9c0,3.5-.91,6.23-2.72,8.13S72.78,100.82,69.43,100.82Zm-7.08-3.06a15.52,15.52,0,0,0,7.08,1.5c2.91,0,5.15-.81,6.65-2.39s2.29-4,2.29-7.06a10.3,10.3,0,0,0-1.27-5.13,14.26,14.26,0,0,0-4.58-4.48A15.76,15.76,0,0,1,68.74,77a5.74,5.74,0,0,1-1.19-3.6,5.18,5.18,0,0,1,1-3.36,3.75,3.75,0,0,1,3.06-1.34,7.78,7.78,0,0,1,3,.59c.59.25,1.18.52,1.74.82L78,66.29a14,14,0,0,0-6.83-1.83A8.1,8.1,0,0,0,65,66.92a9.33,9.33,0,0,0-2.31,6.67,11.6,11.6,0,0,0,.6,3.9,10.1,10.1,0,0,0,1.68,3,16,16,0,0,0,3.29,2.86,17.47,17.47,0,0,1,3.92,3.42,5.93,5.93,0,0,1,1.3,3.71,4.79,4.79,0,0,1-1.16,3.36,4.43,4.43,0,0,1-3.42,1.29,13.32,13.32,0,0,1-6.5-2Z"/></g></g></g></g></svg>