<?xml version="1.0" encoding="utf-8"?>
<!-- Generator: Adobe Illustrator 21.0.2, SVG Export Plug-In . SVG Version: 6.00 Build 0)  -->
<svg version="1.1" id="Layer_1" xmlns="http://www.w3.org/2000/svg" xmlns:xlink="http://www.w3.org/1999/xlink" x="0px" y="0px"
	 viewBox="0 0 81 80" style="enable-background:new 0 0 81 80;" xml:space="preserve">
<style type="text/css">
	.st0{fill:#FFFFFF;}
	.st1{fill:none;stroke:#E4BD03;stroke-width:2;stroke-linecap:round;stroke-miterlimit:10;}
	.st2{fill:none;stroke:#E4BD03;stroke-width:3;stroke-linecap:round;stroke-miterlimit:10;}
	.st3{fill:#E4BD03;}
</style>
<title>a034239c-9e49-45c5-b9aa-40c4a7c7893a</title>
<path class="st0" d="M40,0L40,0c22.1,0,40,17.9,40,40l0,0c0,22.1-17.9,40-40,40l0,0C17.9,80,0,62.1,0,40l0,0C0,17.9,17.9,0,40,0z"/>
<path class="st1" d="M58.3,11.7L58.3,11.7c15.6,15.6,15.6,40.9,0,56.6l0,0"/>
<line class="st2" x1="70" y1="40" x2="283.2" y2="40"/>
<g>
	<path class="st3" d="M42.8,56l-3.5-4.3c-0.3-0.4-0.3-1.1,0.2-1.4c0.4-0.3,1.1-0.3,1.4,0.2L43,53l4.7-4.7c0.4-0.4,1-0.4,1.4,0
		c0.4,0.4,0.4,1,0,1.4L42.8,56z"/>
	<path class="st3" d="M44.3,61c-5.1,0-9.3-4.2-9.3-9.3c0-5.1,4.2-9.3,9.3-9.3c5.1,0,9.3,4.2,9.3,9.3c0,0,0,0,0,0
		C53.6,56.8,49.4,61,44.3,61z M44.3,44.4c-4,0-7.3,3.3-7.3,7.3c0,4,3.3,7.3,7.3,7.3s7.3-3.3,7.3-7.3c0,0,0,0,0,0
		C51.6,47.7,48.3,44.5,44.3,44.4z"/>
	<path class="st3" d="M30.5,54.1H11.6l0-1c0-2.5,0.3-5,0.9-7.4c0.7-2.1,4-3.2,8.2-4.5c1.1-0.4,2.2-0.7,3.3-1.1v-2.3
		c-1.7-1.5-2.7-3.6-2.8-5.8c-0.7-0.6-1.1-1.5-1-2.4c0-0.6,0.1-1.1,0.4-1.7c0.1-0.2,0.3-0.4,0.5-0.6c-0.4-1.4-1-3.7,0.2-5
		c0.6-0.6,1.3-0.8,2.1-0.8c1.1-1.8,3.9-2.4,6.3-2.4l0,0c2.7,0,6,0.9,6.6,3.2c0.3,1.6,0.1,3.3-0.6,4.9c0.6,0.6,0.8,1.5,0.8,2.3
		c0.1,1-0.3,1.9-1,2.5c0,2-0.9,3.9-2.4,5.2V40l0.7,0.3c0.9,0.4,1.8,0.7,2.7,1c0.5,0.2,0.8,0.7,0.6,1.3s-0.7,0.8-1.3,0.6l0,0
		c-0.9-0.3-1.8-0.7-2.8-1c-0.4-0.2-0.9-0.3-1.4-0.5l-0.6-0.2v-5.4l0.5-0.3c0.1,0,1.9-1.1,1.9-4.5v-1h0.9c0.2-0.5,0.2-1.1,0-1.6h-0.9
		v-1c0-0.4,0.1-0.7,0.3-1c0.6-1.2,0.8-2.5,0.6-3.8c-0.2-1-2.3-1.7-4.7-1.7l0,0c-2.4,0-4.4,0.8-4.7,1.7l-0.2,0.9l-0.9-0.2
		c-0.5-0.1-0.9-0.1-1.1,0.1c-0.3,0.3-0.2,1.4,0.3,3.2c0.1,0.3,0.2,0.6,0.2,0.9v1h-0.9c-0.2,0.5-0.2,1,0,1.5h0.9v1
		c-0.1,2,0.8,4,2.4,5.2l0.4,0.3v4.7l-0.6,0.2c-1.3,0.5-2.7,0.9-4,1.4c-2.9,1-6.6,2.2-6.9,3.3c-0.5,1.9-0.8,3.9-0.8,5.8h16.9
		c0.6,0,1,0.4,1,1S31.1,54.1,30.5,54.1z"/>
</g>
</svg>
